<?xml version="1.0" encoding="utf-8"?><svg viewBox="0 0 581 356" xmlns="http://www.w3.org/2000/svg" xmlns:xlink="http://www.w3.org/1999/xlink"><style>:root>svg{display:none}:root>svg:target{display:block}</style><svg viewBox="0 0 24 24" id="arrow" xmlns="http://www.w3.org/2000/svg"><path fill-rule="evenodd" clip-rule="evenodd" d="M6.016 19.3 16.348 8.996v7.952h1.512V6.336H7.22v1.54l8.036-.028L4.924 18.18l1.092 1.12z"/></svg><svg viewBox="0 0 24 24" id="cart" xmlns="http://www.w3.org/2000/svg"><path fill-rule="evenodd" clip-rule="evenodd" d="M12.5 1.379c3.364 0 5.098 2.096 5.116 6.02H20a.6.6 0 0 1 .594.516l1.51 10.576a3.6 3.6 0 0 1-3.563 4.109H6.459a3.6 3.6 0 0 1-3.564-4.11L4.406 7.916A.6.6 0 0 1 5 7.4h2.426c-.011-3.923 1.71-6.021 5.074-6.021zm6.98 7.22H5.519L4.073 18.746l-.008.085-.006.17a2.4 2.4 0 0 0 2.4 2.4h12.082a2.4 2.4 0 0 0 2.376-2.739L19.48 8.6zM12.5 2.58c-2.632 0-3.894 1.517-3.874 4.82h7.79c-.006-3.302-1.283-4.82-3.916-4.82z"/></svg><svg fill="none" viewBox="0 0 24 24" id="facebook" xmlns="http://www.w3.org/2000/svg"><path fill-rule="evenodd" clip-rule="evenodd" d="M13.333 9.333V7.746c0-.717.159-1.08 1.271-1.08H16V4h-2.33c-2.853 0-3.795 1.308-3.795 3.554v1.78H8V12h1.875v8h3.458v-8h2.35L16 9.333h-2.667z" fill="#fff"/></svg><svg fill="none" viewBox="0 0 24 24" id="instagram" xmlns="http://www.w3.org/2000/svg"><path fill-rule="evenodd" clip-rule="evenodd" d="M13.133 4c1.179.005 1.49.017 2.166.048.851.039 1.433.174 1.942.372.526.204.972.478 1.417.922.444.445.718.891.922 1.417.198.51.333 1.09.372 1.942.031.676.043.987.047 2.166l.001.402v1.864a40.864 40.864 0 0 1-.048 2.166c-.039.851-.174 1.433-.372 1.942a3.926 3.926 0 0 1-.922 1.417 3.926 3.926 0 0 1-1.417.922c-.51.198-1.09.333-1.942.372-.676.031-.987.043-2.166.047l-.402.001h-1.462c-1.519-.002-1.82-.014-2.568-.048-.851-.039-1.433-.174-1.942-.372a3.926 3.926 0 0 1-1.417-.922 3.926 3.926 0 0 1-.922-1.417c-.198-.51-.333-1.09-.372-1.942a40.035 40.035 0 0 1-.047-2.166v-2.266c.004-1.179.016-1.49.047-2.166.039-.851.174-1.433.372-1.942.204-.526.478-.972.922-1.417a3.926 3.926 0 0 1 1.417-.922c.51-.198 1.09-.333 1.942-.372.676-.031.987-.043 2.166-.047L13.133 4zm-.21 1.442h-1.846c-.854.002-1.277.007-1.661.02l-.265.009-.384.017c-.78.035-1.204.166-1.485.275-.374.145-.64.319-.92.599-.28.28-.454.546-.599.92-.11.281-.24.705-.275 1.485l-.017.384-.01.265c-.012.384-.017.807-.02 1.661v1.846c.003.854.008 1.277.02 1.661l.01.265.017.384c.035.78.166 1.204.275 1.485.145.374.319.64.599.92.28.28.546.454.92.599.281.11.705.24 1.485.275l.384.017.265.01c.384.012.807.017 1.661.02h1.846a59.927 59.927 0 0 0 1.661-.02l.265-.01.384-.017c.78-.035 1.204-.166 1.485-.275.374-.145.64-.319.92-.599.28-.28.454-.546.599-.92.11-.281.24-.705.275-1.485l.017-.384.01-.265c.012-.384.017-.807.02-1.661v-1.846a59.927 59.927 0 0 0-.02-1.661l-.01-.265-.017-.384c-.035-.78-.166-1.204-.275-1.485a2.474 2.474 0 0 0-.599-.92 2.474 2.474 0 0 0-.92-.599c-.281-.11-.705-.24-1.485-.275l-.384-.017-.265-.01a59.927 59.927 0 0 0-1.661-.02v.001zM12 7.892a4.108 4.108 0 1 1 0 8.215 4.108 4.108 0 0 1 0-8.215zm0 1.441a2.667 2.667 0 1 0 0 5.334 2.667 2.667 0 0 0 0-5.334zm4.27-2.564a.96.96 0 1 1 0 1.92.96.96 0 0 1 0-1.92z" fill="#fff"/></svg><svg fill="none" viewBox="0 0 24 24" id="linkedin" xmlns="http://www.w3.org/2000/svg"><path fill-rule="evenodd" clip-rule="evenodd" d="M20 19h-3.315v-4.922c0-1.288-.519-2.167-1.66-2.167-.871 0-1.356.593-1.582 1.165-.085.205-.072.491-.072.777V19h-3.284s.042-8.718 0-9.51h3.284v1.492c.194-.653 1.244-1.584 2.919-1.584 2.078 0 3.71 1.368 3.71 4.314V19zM6.766 8.3h-.022C5.686 8.3 5 7.573 5 6.65 5 5.711 5.706 5 6.786 5c1.079 0 1.742.71 1.763 1.649 0 .921-.684 1.65-1.783 1.65V8.3zM5.378 9.49h2.924V19H5.378V9.49z" fill="#fff"/></svg><svg viewBox="0 0 168 48" id="logo" xmlns="http://www.w3.org/2000/svg"><path fill-rule="evenodd" clip-rule="evenodd" d="M11.943 0c7.365 0 11.016 3.585 11.016 11.56v25.048C22.959 44.416 19.372 48 11.943 48 4.515 48 1.001 44.415 1.001 36.608V11.56C1 3.582 4.578 0 11.943 0zm145.242 0c6.861 0 10.08 3.353 10.08 10.464v3.024l-7.86.992V10.4c0-2.992-.798-4.12-2.396-4.12-1.2 0-1.822.864-1.822 2.4 0 2.223.8 5.28 3.994 9.697l3.116 4.423c3.115 4.416 5.703 8.535 5.703 14.745 0 6.814-3.579 10.4-10.481 10.4-6.9 0-10.551-3.497-10.551-11.009v-3.888l8.195-1.049v4.985c0 3.32.735 4.584 2.557 4.584 1.231 0 1.925-1 1.925-2.76 0-3.392-1.158-6.712-4.178-11.128l-3.019-4.448c-2.988-4.425-5.407-8.175-5.407-12.96C147.064 3.2 150.547 0 157.185 0zM32.097.728l1.526 20.568c.367 4.8.502 8.073.567 13.752h.726c.105-5.648.271-9.04.631-13.753L37.145.727h8.323l1.525 20.569c.36 4.713.495 8.104.6 13.752h.726c.136-5.648.264-8.936.63-13.753L50.478.727h8.227L53.16 47.24h-9.585L42.48 32.8a328.14 328.14 0 0 1-.925-16.472h-.697c-.23 6.112-.47 10.593-.934 16.473l-1.095 14.4h-9.513L23.51.727h8.587zm36.375 0v39.496h7.19v7.016H59.845V.727h8.627zm23.061 0v39.496h7.19v7.016h-15.81V.727h8.619zm25.56 0 6.12 46.511h-8.94l-.462-5.951h-5.175l-.465 5.952h-8.29L105.75.727h11.343zm19.555 0c6.039 0 8.596 2.793 8.596 9.071v5.482c0 4.447-1.799 6.343-4.617 7.344v.727c3.194 1.128 5.207 3.424 5.207 8.608v5.944c0 6.4-2.748 9.335-8.787 9.335h-12.7V.728h12.301zM11.975 6.713c-1.565 0-2.316 1.19-2.316 3.686v27.432c0 2.328.758 3.456 2.316 3.456 1.558 0 2.325-1.127 2.325-3.456V10.4c0-2.495-.76-3.686-2.325-3.686zM134.89 26.208h-1.924v14.4l1.924-.048c1.526 0 2.126-.8 2.126-2.992v-8.472c0-2.12-.6-2.888-2.126-2.888zm-23.38-14.152h-.695c-.135 5.952-.367 9.472-.726 15.352l-.799 8h3.817l-.797-8c-.368-5.88-.601-9.4-.8-15.353zm23.285-4.712h-1.831v12.655h1.831c1.525 0 2.116-.695 2.116-2.76V10.2c0-2.095-.591-2.856-2.115-2.856h-.001z" fill="#141414"/></svg><svg fill="none" viewBox="0 0 581 356" id="owl-footer" xmlns="http://www.w3.org/2000/svg"><path fill-rule="evenodd" clip-rule="evenodd" d="M290.527 0C130.313 0 0 129.928 0 289.669V745h290.527C450.688 745 581 615.072 581 455.331V289.669C581.001 129.929 450.689 0 290.528 0h-.001zm0 529.275c-141.888 0-256.889-114.663-256.889-256.091a254.596 254.596 0 0 1 19.142-97.011c5.801-12.883 39.534-80.366 111.524-80.366 63.445 0 92.137 44.172 93.075 84.577l3.614 115.205h59.028l3.601-115.205c.952-40.405 29.63-84.577 93.075-84.577 72.004 0 105.723 67.483 111.538 80.366a254.566 254.566 0 0 1 19.128 97.012c0 141.427-115.002 256.09-256.836 256.09zm57.453-341.156c0 37.615 30.584 68.106 68.309 68.106 37.726 0 68.309-30.492 68.309-68.106 0-37.614-30.583-68.106-68.309-68.106a68.386 68.386 0 0 0-48.309 19.94 67.977 67.977 0 0 0-19.999 48.166h-.001zm-251.522 0c0 27.552 16.648 52.389 42.18 62.928 25.532 10.538 54.917 4.701 74.448-14.789 19.533-19.489 25.363-48.792 14.773-74.239-10.59-25.449-35.515-42.028-63.147-42.006a68.385 68.385 0 0 0-48.275 19.959 67.976 67.976 0 0 0-19.98 48.147z" fill="#F5F5F5"/></svg><svg fill="none" viewBox="0 0 24 24" id="play-btn" xmlns="http://www.w3.org/2000/svg"><g stroke="#141414" clip-path="url(#ha)"><path d="M11.827 23.154c6.256 0 11.327-5.071 11.327-11.327S18.083.5 11.827.5.5 5.571.5 11.827s5.071 11.327 11.327 11.327z"/><path clip-rule="evenodd" d="m14.515 11.827-4.032 2.419V9.408l4.032 2.419z" stroke-linecap="square"/></g><defs><clipPath id="ha"><path fill="#fff" d="M0 0h24v24H0z"/></clipPath></defs></svg><svg fill="none" viewBox="0 0 24 24" id="twitter" xmlns="http://www.w3.org/2000/svg"><path fill-rule="evenodd" clip-rule="evenodd" d="M18.202 7.87s1.283-.093 1.798-.45c0 0-.123.41-1.668 1.708 0 0 .52 7.003-7.402 8.718 0 0-4.018.796-6.93-1.234 0 0 3.048.503 4.763-1.255 0 0-2.212.02-2.912-2.072 0 0 .835.167 1.332-.042 0 0-2.506-.481-2.46-3.013 0 0 .677.46 1.286.376 0 0-2.257-1.779-.858-3.996 0 0 3.024 3.315 6.772 3.118a2.805 2.805 0 0 1-.1-.743c0-1.648 1.442-2.985 3.22-2.985.899 0 1.712.342 2.296.892a3.898 3.898 0 0 0 2.19-.648s.05.638-1.327 1.627V7.87z" fill="#fff"/></svg><svg fill="none" viewBox="0 0 24 24" id="youtube" xmlns="http://www.w3.org/2000/svg"><path fill-rule="evenodd" clip-rule="evenodd" d="M10.348 14.213V9.419l4.322 2.405-4.322 2.389zm9.492-5.624s-.157-1.176-.636-1.694c-.608-.68-1.29-.683-1.603-.722C15.362 6 12.004 6 12.004 6h-.008S8.638 6 6.4 6.173c-.313.04-.995.042-1.604.722-.479.518-.635 1.694-.635 1.694S4 9.969 4 11.349v1.295c0 1.381.16 2.762.16 2.762s.156 1.175.635 1.693c.61.68 1.409.658 1.765.73C7.84 17.958 12 18 12 18s3.362-.005 5.601-.178c.313-.04.995-.043 1.603-.723.48-.518.636-1.693.636-1.693s.16-1.38.16-2.762V11.35c0-1.38-.16-2.761-.16-2.761z" fill="#fff"/></svg></svg>